# xmcd
# 
# Track frame offsets:
#     150
#     17957
#     38271
#     56265
#     77561
#     93661
#     115305
#     134924
#     169841
# 
# Disc length: 2613
# 
# Revision: 0
# Processed by: cddbd v1.5.2PL0 Copyright (c) Steve Scherf et al.
# Submitted via: fre:ac v1.0.31
# 
DISCID=700a3309
DTITLE=Nothing - Dance On The Blacktop
DYEAR=2018
DGENRE=
TTITLE0=Zero Day
TTITLE1=Blue Line Baby
TTITLE2=You Wind Me Up
TTITLE3=Plastic Migraine
TTITLE4=Us/We/Are
TTITLE5=Hail On Palace Pier
TTITLE6=I Hate The Flowers
TTITLE7=The Carpenters Son
TTITLE8=(HOPE) Is Just Another Word With A Hole In It
EXTD=
EXTT0=
EXTT1=
EXTT2=
EXTT3=
EXTT4=
EXTT5=
EXTT6=
EXTT7=
EXTT8=
PLAYORDER=
